<?xml version="1.0" encoding="UTF-8"?>
<svg id="Layer_1" data-name="Layer 1" xmlns="http://www.w3.org/2000/svg" viewBox="0 0 169.89 166.14">
  <defs>
    <style>
      .cls-1 {
        fill: #282767;
      }
    </style>
  </defs>
  <path class="cls-1" d="M84.94,52.73c-8.11,0-15.73,3.16-21.46,8.89-5.73,5.73-8.89,13.35-8.89,21.46s3.16,15.73,8.89,21.46c5.73,5.73,13.35,8.89,21.46,8.89s15.73-3.16,21.46-8.89c5.73-5.73,8.89-13.35,8.89-21.46s-3.16-15.73-8.89-21.46c-5.73-5.73-13.35-8.89-21.46-8.89ZM104.07,72.84l-23.3,23.3c-.43.43-.98.64-1.54.64s-1.12-.21-1.54-.64l-11.74-11.74c-.85-.85-.85-2.23,0-3.09.85-.85,2.23-.85,3.09,0l10.19,10.19,21.76-21.76c.85-.85,2.23-.85,3.09,0,.85.85.85,2.23,0,3.09Z"/>
  <path class="cls-1" d="M133.13,86.1c-.94-1.91-.94-4.15,0-6.06l4.4-9.01c1.64-3.35.32-7.39-2.97-9.13l-8.86-4.7c-1.88-1-3.2-2.81-3.56-4.91l-1.73-9.87c-.64-3.67-4.08-6.17-7.77-5.64l-9.93,1.4c-2.11.3-4.24-.39-5.77-1.87l-7.2-6.97c-2.68-2.59-6.92-2.59-9.6,0l-7.2,6.97c-1.53,1.48-3.66,2.17-5.77,1.87l-9.93-1.4c-3.69-.52-7.12,1.98-7.77,5.64l-1.73,9.87c-.37,2.1-1.68,3.91-3.56,4.91l-8.86,4.7c-3.29,1.75-4.6,5.79-2.97,9.13l4.4,9.01c.94,1.91.94,4.15,0,6.06l-4.4,9.01c-1.64,3.35-.32,7.39,2.97,9.13l8.86,4.7c1.88,1,3.2,2.81,3.56,4.91l1.73,9.87c.64,3.67,4.08,6.17,7.77,5.64l9.93-1.4c2.11-.3,4.24.39,5.77,1.87l7.2,6.97c2.68,2.59,6.92,2.59,9.6,0l7.2-6.97c1.53-1.48,3.66-2.17,5.77-1.87l9.93,1.4c3.69.52,7.12-1.98,7.77-5.64l1.73-9.87c.37-2.1,1.68-3.91,3.56-4.91l8.86-4.7c3.29-1.75,4.6-5.79,2.97-9.13l-4.4-9.01ZM109.48,107.61c-6.56,6.56-15.27,10.17-24.54,10.17s-17.99-3.61-24.54-10.17c-6.56-6.56-10.17-15.27-10.17-24.54s3.61-17.99,10.17-24.54c6.56-6.56,15.27-10.17,24.54-10.17s17.99,3.61,24.54,10.17c6.56,6.56,10.17,15.27,10.17,24.54s-3.61,17.99-10.17,24.54Z"/>
</svg>