<?xml version="1.0" encoding="UTF-8"?>
<svg id="Layer_1" data-name="Layer 1" xmlns="http://www.w3.org/2000/svg" viewBox="0 0 169.89 166.14">
  <defs>
    <style>
      .cls-1 {
        fill: #282868;
      }
    </style>
  </defs>
  <path class="cls-1" d="M114.29,70.61c-.58,0-1.09-.36-1.28-.91-1.87-5.3-3.21-6.65-8.51-8.51-.54-.19-.91-.71-.91-1.28s.37-1.09.91-1.28c5.3-1.86,6.65-3.22,8.51-8.51.39-1.09,2.18-1.09,2.57,0,1.87,5.3,3.21,6.65,8.51,8.51.54.19.91.71.91,1.28s-.37,1.09-.91,1.28c-5.3,1.86-6.65,3.21-8.51,8.51-.19.54-.71.91-1.28.91ZM108.57,59.91c2.8,1.35,4.38,2.92,5.73,5.72,1.35-2.8,2.93-4.38,5.73-5.72-2.8-1.35-4.38-2.93-5.73-5.73-1.35,2.8-2.93,4.38-5.73,5.73Z"/>
  <path class="cls-1" d="M120.81,50.55c-.58,0-1.09-.36-1.28-.91-1.26-3.58-2.11-4.42-5.68-5.68-.54-.19-.91-.71-.91-1.28s.37-1.09.91-1.28c3.58-1.26,4.42-2.11,5.68-5.68.39-1.09,2.18-1.09,2.57,0,1.26,3.58,2.11,4.42,5.68,5.68.54.19.91.71.91,1.28s-.37,1.09-.91,1.28c-3.58,1.26-4.42,2.11-5.68,5.68-.19.54-.71.91-1.28.91ZM117.7,42.68c1.39.78,2.32,1.72,3.11,3.1.79-1.38,1.72-2.32,3.11-3.1-1.39-.78-2.32-1.72-3.11-3.1-.79,1.38-1.72,2.32-3.11,3.1Z"/>
  <path class="cls-1" d="M84.15,77.12c-.58,0-1.09-.36-1.28-.91-.99-2.81-1.61-3.42-4.42-4.41-.54-.19-.91-.71-.91-1.28s.37-1.09.91-1.28c2.81-.99,3.42-1.61,4.42-4.41.19-.54.71-.91,1.28-.91h0c.58,0,1.09.36,1.28.91.98,2.81,1.6,3.42,4.41,4.41.54.19.91.71.91,1.28s-.37,1.09-.91,1.28c-2.81.99-3.42,1.61-4.41,4.41-.19.54-.71.91-1.28.91h0ZM82.17,70.52c.82.53,1.45,1.15,1.98,1.98.52-.83,1.15-1.45,1.97-1.98-.82-.53-1.45-1.15-1.97-1.98-.53.83-1.16,1.45-1.98,1.98Z"/>
  <path class="cls-1" d="M81.44,93.56c-19.78,0-40.24-8.64-40.24-23.09s20.46-23.09,40.24-23.09c11.42,0,22.33,2.73,29.92,7.48.85.53,1.11,1.65.58,2.5-.54.85-1.65,1.1-2.5.58-7.03-4.4-17.23-6.92-27.99-6.92-20.19,0-36.61,8.73-36.61,19.46s16.42,19.46,36.61,19.46,36.62-8.73,36.62-19.46c0-2.03-.57-4.01-1.69-5.9-.51-.86-.23-1.97.63-2.49.85-.52,1.97-.23,2.49.63,1.46,2.46,2.2,5.07,2.2,7.76,0,14.46-20.47,23.09-40.25,23.09Z"/>
  <path class="cls-1" d="M81.44,105.53c-19.78,0-40.24-8.64-40.24-23.09,0-2.14.47-4.23,1.39-6.22.42-.91,1.5-1.31,2.41-.88.91.42,1.3,1.5.88,2.41-.7,1.51-1.05,3.09-1.05,4.7,0,10.73,16.42,19.46,36.61,19.46s36.62-8.73,36.62-19.46c0-1.57-.35-3.13-1.02-4.62-.42-.91-.02-1.98.89-2.4.93-.43,1.98,0,2.4.9.9,1.97,1.35,4.03,1.35,6.12,0,14.46-20.47,23.09-40.25,23.09Z"/>
  <path class="cls-1" d="M81.44,118.39c-19.78,0-40.24-8.64-40.24-23.09,0-2.14.47-4.23,1.39-6.22.42-.91,1.5-1.31,2.41-.88.91.42,1.3,1.5.88,2.41-.7,1.51-1.05,3.09-1.05,4.7,0,10.73,16.42,19.46,36.61,19.46s36.62-8.73,36.62-19.46c0-1.57-.35-3.13-1.02-4.62-.42-.91-.02-1.98.89-2.4.93-.42,1.98,0,2.4.9.9,1.97,1.35,4.03,1.35,6.12,0,14.46-20.47,23.09-40.25,23.09Z"/>
  <path class="cls-1" d="M81.44,131.25c-19.78,0-40.24-8.64-40.24-23.09,0-2.14.47-4.23,1.39-6.23.42-.91,1.5-1.31,2.41-.88.91.42,1.3,1.5.88,2.41-.7,1.51-1.05,3.09-1.05,4.7,0,10.73,16.42,19.46,36.61,19.46s36.62-8.73,36.62-19.46c0-1.57-.35-3.13-1.02-4.63-.41-.92,0-1.99.91-2.4.89-.41,1.98,0,2.4.91.88,1.97,1.34,4.04,1.34,6.12,0,14.45-20.47,23.09-40.25,23.09Z"/>
  <path class="cls-1" d="M81.44,82.84c-14.42,0-25.31-5.32-25.31-12.38s10.88-12.37,25.31-12.37,25.32,5.32,25.32,12.37-10.88,12.38-25.32,12.38ZM81.44,61.72c-12.78,0-21.68,4.61-21.68,8.74s8.9,8.75,21.68,8.75,21.69-4.61,21.69-8.75-8.9-8.74-21.69-8.74Z"/>
</svg>